Coordinates
version=1
nRows=60
nColumns=12
inDegrees=yes

Units are S.I. units (second, meters, Newtons, ...)
Angles are in degrees

endheader
time	SC_y	SC_z	SC_x	AC_y	AC_z	AC_x	GH_y	GH_z	GH_yy	EL_x	PS_y
       0.0              -29.13         -3.623          49.54          35.53         -9.113         -17.84           14.3          15.81          49.58          135.3          50.97
 0.0005969              -29.13         -3.621          49.54          35.53         -9.111         -17.84          14.31          15.82          49.57          135.3          50.98
  0.001194              -29.13          -3.62          49.54          35.53         -9.109         -17.84          14.32          15.83          49.56          135.3           51.0
  0.001791              -29.13         -3.619          49.54          35.54         -9.107         -17.84          14.34          15.84          49.56          135.3          51.01
  0.002387              -29.13         -3.617          49.53          35.54         -9.105         -17.84          14.36          15.85          49.55          135.3          51.03
  0.002984              -29.13         -3.616          49.53          35.54         -9.102         -17.83          14.38          15.86          49.54          135.3          51.04
  0.003581              -29.13         -3.614          49.52          35.54           -9.1         -17.83          14.39          15.88          49.53          135.3          51.06
  0.004178              -29.13         -3.612          49.52          35.55         -9.097         -17.83          14.41          15.89          49.52          135.3          51.08
  0.004775              -29.13         -3.611          49.52          35.55         -9.094         -17.83          14.44           15.9          49.51          135.3          51.09
  0.005372              -29.13         -3.609          49.51          35.55         -9.091         -17.83          14.46          15.92           49.5          135.3          51.11
  0.005969              -29.12         -3.606          49.51          35.56         -9.087         -17.82          14.49          15.94          49.49          135.3          51.14
  0.006565              -29.12         -3.604           49.5          35.56         -9.084         -17.82          14.51          15.96          49.47          135.3          51.16
  0.007162              -29.12         -3.602           49.5          35.57          -9.08         -17.82          14.54          15.98          49.46          135.2          51.19
  0.007759              -29.12         -3.599          49.49          35.57         -9.075         -17.82          14.57           16.0          49.44          135.2          51.21
  0.008356              -29.12         -3.596          49.48          35.58         -9.071         -17.81          14.61          16.03          49.43          135.2          51.24
  0.008953              -29.12         -3.593          49.48          35.58         -9.066         -17.81          14.65          16.05          49.41          135.2          51.27
   0.00955              -29.12         -3.589          49.47          35.59          -9.06         -17.81          14.69          16.08          49.39          135.2          51.31
   0.01015              -29.12         -3.585          49.46          35.59         -9.054          -17.8          14.73          16.11          49.37          135.2          51.35
   0.01074              -29.12         -3.581          49.45           35.6         -9.048          -17.8          14.78          16.14          49.35          135.2          51.39
   0.01134              -29.12         -3.577          49.44          35.61         -9.041         -17.79          14.83          16.18          49.32          135.2          51.43
   0.01194              -29.12         -3.572          49.43          35.62         -9.033         -17.79          14.89          16.22          49.29          135.2          51.48
   0.01253              -29.12         -3.566          49.42          35.63         -9.024         -17.78          14.95          16.27          49.26          135.1          51.54
   0.01313              -29.11          -3.56           49.4          35.64         -9.015         -17.77          15.02          16.32          49.23          135.1           51.6
   0.01373              -29.11         -3.554          49.39          35.65         -9.004         -17.77           15.1          16.37          49.19          135.1          51.67
   0.01432              -29.11         -3.546          49.37          35.66         -8.992         -17.76          15.19          16.43          49.15          135.1          51.74
   0.01492              -29.11         -3.538          49.35          35.68         -8.979         -17.75          15.28           16.5           49.1          135.1          51.83
   0.01552              -29.11         -3.529          49.33          35.69         -8.965         -17.74          15.39          16.57          49.05          135.0          51.92
   0.01611              -29.11         -3.518          49.31          35.71         -8.948         -17.73          15.51          16.66          48.99          135.0          52.02
   0.01671               -29.1         -3.506          49.28          35.73         -8.929         -17.72          15.65          16.76          48.93          135.0          52.14
   0.01731               -29.1         -3.493          49.25          35.76         -8.908          -17.7           15.8          16.87          48.85          134.9          52.28
   0.01791               -29.1         -3.478          49.22          35.78         -8.884         -17.68          15.98          16.99          48.77          134.9          52.43
    0.0185              -29.09          -3.46          49.18          35.81         -8.856         -17.67          16.19          17.13          48.67          134.8          52.61
    0.0191              -29.09          -3.44          49.14          35.85         -8.824         -17.64          16.42           17.3          48.55          134.8          52.81
    0.0197              -29.08         -3.416          49.08          35.89         -8.787         -17.62           16.7          17.49          48.42          134.7          53.05
   0.02029              -29.08         -3.389          49.02          35.94         -8.744         -17.59          17.02          17.72          48.27          134.6          53.33
   0.02089              -29.07         -3.356          48.95          35.99         -8.693         -17.55          17.39          17.98          48.09          134.5          53.66
   0.02149              -29.06         -3.317          48.86          36.06         -8.632         -17.51          17.84           18.3          47.87          134.4          54.04
   0.02208              -29.05         -3.271          48.76          36.14         -8.559         -17.46          18.38          18.68          47.61          134.3          54.51
   0.02268              -29.04         -3.215          48.63          36.24          -8.47          -17.4          19.03          19.13           47.3          134.1          55.07
   0.02328              -29.02         -3.147          48.48          36.36         -8.362         -17.33          19.83          19.69          46.91          133.9          55.76
   0.02387               -29.0         -3.062          48.29           36.5         -8.229         -17.23          20.81          20.38          46.44          133.7          56.61
   0.02447              -28.98         -2.957          48.06          36.69         -8.063         -17.12          22.03          21.24          45.85          133.4          57.67
   0.02507              -28.95         -2.824          47.76          36.92         -7.853         -16.98          23.57          22.33          45.11          133.0          59.01
   0.02566              -28.91         -2.656          47.39          37.21         -7.587         -16.79          25.53           23.7          44.17          132.5           60.7
   0.02626              -28.86          -2.44          46.91          37.59         -7.247         -16.56          28.04          25.47          42.96          131.9          62.88
   0.02686               -28.8         -2.163          46.29          38.07          -6.81         -16.26          31.26          27.73          41.41          131.0          65.66
   0.02746              -28.72         -1.809           45.5          38.68         -6.251         -15.88          35.37          30.62          39.43          130.0          69.22
   0.02805              -28.62         -1.364          44.51          39.46         -5.549          -15.4          40.54          34.25          36.94          128.7           73.7
   0.02865               -28.5        -0.8217           43.3           40.4         -4.694         -14.81          46.84          38.68          33.91          127.1          79.16
   0.02925              -28.36        -0.1932           41.9          41.49         -3.702         -14.13          54.14          43.82          30.39          125.3          85.48
   0.02984              -28.21         0.4873          40.38          42.68         -2.629         -13.39          62.05          49.37          26.58          123.3          92.33
   0.03044              -28.06          1.168          38.86          43.86         -1.555         -12.66          69.96          54.93          22.78          121.3          99.18
   0.03104              -27.92          1.796          37.46          44.95        -0.5634         -11.98          77.26          60.07          19.26          119.5          105.5
   0.03163               -27.8          2.338          36.25          45.89         0.2921         -11.39          83.56          64.49          16.23          117.9          111.0
   0.03223               -27.7          2.783          35.26          46.67          0.994         -10.91          88.73          68.13          13.74          116.6          115.4
   0.03283              -27.62          3.137          34.47          47.28          1.552         -10.52          92.84          71.02          11.76          115.5          119.0
   0.03342              -27.56          3.414          33.85          47.76          1.989         -10.22          96.06          73.28          10.21          114.7          121.8
   0.03402              -27.51           3.63          33.37          48.14           2.33         -9.991          98.57          75.04          9.001          114.1          124.0
   0.03462              -27.47          3.799          32.99          48.43          2.596         -9.808          100.5          76.42          8.057          113.6          125.7
   0.03521              -27.44          3.932           32.7          48.66          2.805         -9.665          102.1          77.51          7.315          113.2          127.0
